<svg xmlns="http://www.w3.org/2000/svg" version="1.1" xmlns:xlink="http://www.w3.org/1999/xlink" xmlns:svgjs="http://svgjs.dev/svgjs" width="128" height="128" viewBox="0 0 128 128"><g transform="matrix(0.8046875,0,0,0.8046875,12.760752631578946,16.670436955502424)"><svg viewBox="0 0 95 88" data-background-color="#001f3f" preserveAspectRatio="xMidYMid meet" height="118" width="128" xmlns="http://www.w3.org/2000/svg" xmlns:xlink="http://www.w3.org/1999/xlink"><g id="tight-bounds" transform="matrix(1,0,0,1,-0.24049999999999727,-0.13623513796110842)"><svg viewBox="0 0 95.481 88.27247027592222" height="88.27247027592222" width="95.481"><g><svg viewBox="0 0 95.481 88.27247027592222" height="88.27247027592222" width="95.481"><g><svg viewBox="0 0 95.481 88.27247027592222" height="88.27247027592222" width="95.481"><g id="textblocktransform"><svg viewBox="0 0 95.481 88.27247027592222" height="88.27247027592222" width="95.481" id="textblock"><g><svg viewBox="0 0 95.481 88.27247027592222" height="88.27247027592222" width="95.481"><g><svg viewBox="0 0 95.481 88.27247027592222" height="88.27247027592222" width="95.481"><g><svg xmlns:dc="http://purl.org/dc/elements/1.1/" xmlns:cc="http://creativecommons.org/ns#" xmlns:rdf="http://www.w3.org/1999/02/22-rdf-syntax-ns#" xmlns:svg="http://www.w3.org/2000/svg" xmlns="http://www.w3.org/2000/svg" version="1.1" viewBox="15.000000972968124 25.192100136952696 269.99999481569915 249.615803320744" xml:space="preserve" style="" x="0" y="0" fill-rule="evenodd" height="88.27247027592222" width="95.481" class="icon-icon-0" data-fill-palette-color="accent" id="icon-0"><path d="M148.528 25.212c-9.466 0.246-19.104 2.758-27.867 7.817C100.825 44.481 90.241 66.036 91.506 87.568 65.658 105.453 50.305 133.713 47.728 163.445c-1.146 0.565-2.283 1.101-3.403 1.747-27.952 16.138-37.653 52.35-21.521 80.291 16.138 27.952 52.35 37.653 80.291 21.521 1.101-0.636 2.175-1.327 3.219-2.023 27.083 12.662 59.289 13.491 87.74 0 17.991 11.767 41.843 13.442 61.621 2.023 27.952-16.138 37.653-52.35 21.521-80.291-5.99-10.376-14.772-18.268-24.832-23.268-1.191-14.657-5.52-29.23-13.336-42.767C231.219 107.152 220.683 96.104 208.586 87.752 209.337 76.535 206.952 65.035 200.952 54.642 189.879 35.464 169.414 24.669 148.528 25.212z m0.736 29.43c10.347-0.269 20.473 4.934 26.12 14.716 8.188 14.182 3.503 31.826-10.669 40.007-14.154 8.172-31.816 3.427-40.007-10.76-8.188-14.182-3.503-31.826 10.669-40.008 4.4-2.54 9.157-3.832 13.887-3.955z m-47.733 62.357c17.078 25.077 51.201 33.349 77.9 17.934 7.904-4.564 14.228-10.805 19.038-17.934 5.799 5.134 10.881 11.275 14.991 18.394 4.077 7.061 6.808 14.534 8.37 22.073-8.517 0.646-17.06 3.093-24.925 7.634-26.69 15.41-36.647 49.093-23.452 76.428-15.53 5.286-32.003 5.119-46.906 0.092 8.114-16.946 8.1-37.533-1.931-54.907-10.038-17.387-27.811-27.746-46.538-29.155 3.096-15.392 11.144-29.767 23.453-40.559z m123.977 69.714c10.347-0.269 20.473 4.934 26.12 14.716 8.188 14.182 3.503 31.826-10.668 40.007-14.154 8.172-31.816 3.427-40.008-10.76-8.188-14.182-3.503-31.826 10.669-40.008 4.4-2.54 9.157-3.832 13.887-3.955z m-152.58 0.092c10.405-0.27 20.486 4.866 26.12 14.624 8.188 14.182 3.503 31.826-10.669 40.007-14.182 8.188-31.826 3.503-40.007-10.669-8.188-14.182-3.503-31.826 10.668-40.007 4.4-2.54 9.157-3.832 13.888-3.955z" fill="#ffffff" fill-opacity="1" fill-rule="nonzero" stroke="none" marker="none" visibility="visible" display="inline" overflow="visible" text-indent="0" text-transform="none" direction="ltr" block-progression="tb" baseline-shift="baseline" color="#ffffff" enable-background="accumulate" data-fill-palette-color="accent"></path></svg></g></svg></g></svg></g></svg></g></svg></g><g></g></svg></g><defs></defs></svg><rect width="95.481" height="88.27247027592222" fill="none" stroke="none" visibility="hidden"></rect></g></svg></g></svg>